<?xml version="1.0" encoding="utf-8" standalone="no"?>
<!DOCTYPE svg PUBLIC "-//W3C//DTD SVG 1.1//EN"
  "http://www.w3.org/Graphics/SVG/1.1/DTD/svg11.dtd">
<svg xmlns:xlink="http://www.w3.org/1999/xlink" width="529.518587pt" height="372.486281pt" viewBox="0 0 529.518587 372.486281" xmlns="http://www.w3.org/2000/svg" version="1.1">
 <metadata>
  <rdf:RDF xmlns:dc="http://purl.org/dc/elements/1.1/" xmlns:cc="http://creativecommons.org/ns#" xmlns:rdf="http://www.w3.org/1999/02/22-rdf-syntax-ns#">
   <cc:Work>
    <dc:type rdf:resource="http://purl.org/dc/dcmitype/StillImage"/>
    <dc:date>2026-10-06T09:22:11.195209</dc:date>
    <dc:format>image/svg+xml</dc:format>
    <dc:creator>
     <cc:Agent>
      <dc:title>Matplotlib v3.10.7, https://matplotlib.org/</dc:title>
     </cc:Agent>
    </dc:creator>
   </cc:Work>
  </rdf:RDF>
 </metadata>
 <defs>
  <style type="text/css">*{stroke-linejoin: round; stroke-linecap: butt}</style>
 </defs>
 <g id="figure_1">
  <g id="patch_1">
   <path d="M 0 372.486281 
L 529.518587 372.486281 
L 529.518587 0 
L 0 0 
z
" style="fill: #ffffff"/>
  </g>
  <g id="axes_1">
   <g id="line2d_1">
    <path d="M 22.4768 288.902281 
L 434.9504 288.902281 
" clip-path="url(#p68ce64bc97)" style="fill: none; stroke: #888888; stroke-width: 0.8; stroke-linecap: square"/>
   </g>
   <g id="line2d_2">
    <path d="M 53.0304 327.094281 
L 53.0304 52.111881 
" clip-path="url(#p68ce64bc97)" style="fill: none; stroke: #000000; stroke-width: 1.3; stroke-linecap: square"/>
   </g>
   <g id="line2d_3">
    <path d="M 279.148272 368.268767 
L 284.501621 361.847091 
L 289.672657 355.277717 
L 294.657307 348.565822 
L 299.451646 341.716692 
L 304.051897 334.73572 
L 308.454437 327.628405 
L 312.655799 320.400346 
L 316.652672 313.057235 
L 320.44191 305.604856 
L 324.020528 298.049079 
L 327.385707 290.395854 
L 330.534796 282.65121 
L 333.465316 274.821247 
L 336.174958 266.91213 
L 338.661588 258.930091 
L 340.923247 250.881416 
L 342.958155 242.772444 
L 344.764707 234.609562 
L 346.341483 226.399199 
L 347.687239 218.147823 
L 348.800915 209.861931 
L 349.681635 201.54805 
L 350.328705 193.212729 
L 350.741615 184.862533 
L 350.92004 176.504038 
L 350.863839 168.143827 
L 350.573057 159.788486 
L 350.047922 151.444596 
L 349.288849 143.118727 
L 348.296435 134.817439 
L 347.071462 126.547269 
L 345.614894 118.31473 
L 343.927879 110.126308 
L 342.011746 101.988451 
L 339.868004 93.90757 
L 337.498341 85.890028 
L 334.904623 77.942142 
L 332.088894 70.070169 
L 329.053372 62.280312 
L 326.468303 56.111674 
L 326.468303 56.111674 
" clip-path="url(#p68ce64bc97)" style="fill: none; stroke: #1f5fa8; stroke-width: 1.8; stroke-linecap: square"/>
   </g>
   <g id="line2d_4">
    <path d="M 273.512719 363.435124 
L 278.494257 359.086112 
L 283.331536 354.561681 
L 288.018178 349.867501 
L 292.54802 345.009462 
L 296.91512 339.993666 
L 301.113764 334.82642 
L 305.138472 329.514226 
L 308.984003 324.063777 
L 312.645366 318.481944 
L 316.117819 312.77577 
L 319.396883 306.95246 
L 322.478337 301.019377 
L 325.358232 294.984024 
L 328.032891 288.854044 
L 330.498915 282.637204 
L 332.753187 276.34139 
L 334.792872 269.974595 
L 336.61543 263.544909 
L 338.218607 257.060513 
L 339.600448 250.529663 
L 340.759293 243.960687 
L 341.693785 237.361968 
L 342.402865 230.741939 
L 342.88578 224.109072 
L 343.142081 217.471864 
L 343.171622 210.838832 
L 342.974567 204.2185 
L 342.551384 197.619389 
L 341.902849 191.050005 
L 341.030041 184.518832 
L 339.934349 178.034321 
L 338.617463 171.604876 
L 337.081376 165.238849 
L 335.328383 158.944527 
L 333.36108 152.73012 
L 331.182358 146.603755 
L 328.795402 140.573463 
L 326.20369 134.647172 
L 323.410987 128.832693 
L 320.421343 123.137713 
L 317.23909 117.569784 
L 313.868833 112.136315 
L 310.315452 106.844563 
L 306.584094 101.70162 
L 302.680165 96.714408 
L 298.609331 91.889667 
L 294.377506 87.233949 
L 289.990852 82.753608 
L 285.455767 78.454788 
L 281.961026 75.353375 
L 281.961026 75.353375 
" clip-path="url(#p68ce64bc97)" style="fill: none; stroke-dasharray: 1.6,2.64; stroke-dashoffset: 0; stroke: #7d3c98; stroke-width: 1.6"/>
   </g>
   <g id="line2d_5">
    <path d="M 327.524911 137.596827 
L 53.0304 257.640497 
" clip-path="url(#p68ce64bc97)" style="fill: none; stroke: #d35400; stroke-width: 1.3; stroke-linecap: square"/>
   </g>
   <g id="line2d_6">
    <path d="M 53.0304 174.326281 
L 348.296435 134.817439 
" clip-path="url(#p68ce64bc97)" style="fill: none; stroke-dasharray: 3.33,1.44; stroke-dashoffset: 0; stroke: #000000; stroke-width: 0.9"/>
   </g>
   <g id="line2d_7">
    <path d="M 53.0304 174.326281 
L 328.0128 288.902281 
" clip-path="url(#p68ce64bc97)" style="fill: none; stroke-dasharray: 3.33,1.44; stroke-dashoffset: 0; stroke: #000000; stroke-width: 0.9"/>
   </g>
   <g id="text_1">
    <!-- z -->
    <g transform="translate(427.312 304.179081) scale(0.11 -0.11)">
     <defs>
      <path id="DejaVuSans-7a" d="M 353 3500 
L 3084 3500 
L 3084 2975 
L 922 459 
L 3084 459 
L 3084 0 
L 275 0 
L 275 525 
L 2438 3041 
L 353 3041 
L 353 3500 
z
" transform="scale(0.015625)"/>
     </defs>
     <use xlink:href="#DejaVuSans-7a"/>
    </g>
   </g>
   <g id="text_2">
    <!-- y -->
    <g transform="translate(35.062175 59.750281) scale(0.11 -0.11)">
     <defs>
      <path id="DejaVuSans-79" d="M 2059 -325 
Q 1816 -950 1584 -1140 
Q 1353 -1331 966 -1331 
L 506 -1331 
L 506 -850 
L 844 -850 
Q 1081 -850 1212 -737 
Q 1344 -625 1503 -206 
L 1606 56 
L 191 3500 
L 800 3500 
L 1894 763 
L 2988 3500 
L 3597 3500 
L 2059 -325 
z
" transform="scale(0.015625)"/>
     </defs>
     <use xlink:href="#DejaVuSans-79"/>
    </g>
   </g>
   <g id="text_3">
    <!-- image plane z = 0 -->
    <g transform="translate(58.7592 353.828681) scale(0.08 -0.08)">
     <defs>
      <path id="DejaVuSans-69" d="M 603 3500 
L 1178 3500 
L 1178 0 
L 603 0 
L 603 3500 
z
M 603 4863 
L 1178 4863 
L 1178 4134 
L 603 4134 
L 603 4863 
z
" transform="scale(0.015625)"/>
      <path id="DejaVuSans-6d" d="M 3328 2828 
Q 3544 3216 3844 3400 
Q 4144 3584 4550 3584 
Q 5097 3584 5394 3201 
Q 5691 2819 5691 2113 
L 5691 0 
L 5113 0 
L 5113 2094 
Q 5113 2597 4934 2840 
Q 4756 3084 4391 3084 
Q 3944 3084 3684 2787 
Q 3425 2491 3425 1978 
L 3425 0 
L 2847 0 
L 2847 2094 
Q 2847 2600 2669 2842 
Q 2491 3084 2119 3084 
Q 1678 3084 1418 2786 
Q 1159 2488 1159 1978 
L 1159 0 
L 581 0 
L 581 3500 
L 1159 3500 
L 1159 2956 
Q 1356 3278 1631 3431 
Q 1906 3584 2284 3584 
Q 2666 3584 2933 3390 
Q 3200 3197 3328 2828 
z
" transform="scale(0.015625)"/>
      <path id="DejaVuSans-61" d="M 2194 1759 
Q 1497 1759 1228 1600 
Q 959 1441 959 1056 
Q 959 750 1161 570 
Q 1363 391 1709 391 
Q 2188 391 2477 730 
Q 2766 1069 2766 1631 
L 2766 1759 
L 2194 1759 
z
M 3341 1997 
L 3341 0 
L 2766 0 
L 2766 531 
Q 2569 213 2275 61 
Q 1981 -91 1556 -91 
Q 1019 -91 701 211 
Q 384 513 384 1019 
Q 384 1609 779 1909 
Q 1175 2209 1959 2209 
L 2766 2209 
L 2766 2266 
Q 2766 2663 2505 2880 
Q 2244 3097 1772 3097 
Q 1472 3097 1187 3025 
Q 903 2953 641 2809 
L 641 3341 
Q 956 3463 1253 3523 
Q 1550 3584 1831 3584 
Q 2591 3584 2966 3190 
Q 3341 2797 3341 1997 
z
" transform="scale(0.015625)"/>
      <path id="DejaVuSans-67" d="M 2906 1791 
Q 2906 2416 2648 2759 
Q 2391 3103 1925 3103 
Q 1463 3103 1205 2759 
Q 947 2416 947 1791 
Q 947 1169 1205 825 
Q 1463 481 1925 481 
Q 2391 481 2648 825 
Q 2906 1169 2906 1791 
z
M 3481 434 
Q 3481 -459 3084 -895 
Q 2688 -1331 1869 -1331 
Q 1566 -1331 1297 -1286 
Q 1028 -1241 775 -1147 
L 775 -588 
Q 1028 -725 1275 -790 
Q 1522 -856 1778 -856 
Q 2344 -856 2625 -561 
Q 2906 -266 2906 331 
L 2906 616 
Q 2728 306 2450 153 
Q 2172 0 1784 0 
Q 1141 0 747 490 
Q 353 981 353 1791 
Q 353 2603 747 3093 
Q 1141 3584 1784 3584 
Q 2172 3584 2450 3431 
Q 2728 3278 2906 2969 
L 2906 3500 
L 3481 3500 
L 3481 434 
z
" transform="scale(0.015625)"/>
      <path id="DejaVuSans-65" d="M 3597 1894 
L 3597 1613 
L 953 1613 
Q 991 1019 1311 708 
Q 1631 397 2203 397 
Q 2534 397 2845 478 
Q 3156 559 3463 722 
L 3463 178 
Q 3153 47 2828 -22 
Q 2503 -91 2169 -91 
Q 1331 -91 842 396 
Q 353 884 353 1716 
Q 353 2575 817 3079 
Q 1281 3584 2069 3584 
Q 2775 3584 3186 3129 
Q 3597 2675 3597 1894 
z
M 3022 2063 
Q 3016 2534 2758 2815 
Q 2500 3097 2075 3097 
Q 1594 3097 1305 2825 
Q 1016 2553 972 2059 
L 3022 2063 
z
" transform="scale(0.015625)"/>
      <path id="DejaVuSans-20" transform="scale(0.015625)"/>
      <path id="DejaVuSans-70" d="M 1159 525 
L 1159 -1331 
L 581 -1331 
L 581 3500 
L 1159 3500 
L 1159 2969 
Q 1341 3281 1617 3432 
Q 1894 3584 2278 3584 
Q 2916 3584 3314 3078 
Q 3713 2572 3713 1747 
Q 3713 922 3314 415 
Q 2916 -91 2278 -91 
Q 1894 -91 1617 61 
Q 1341 213 1159 525 
z
M 3116 1747 
Q 3116 2381 2855 2742 
Q 2594 3103 2138 3103 
Q 1681 3103 1420 2742 
Q 1159 2381 1159 1747 
Q 1159 1113 1420 752 
Q 1681 391 2138 391 
Q 2594 391 2855 752 
Q 3116 1113 3116 1747 
z
" transform="scale(0.015625)"/>
      <path id="DejaVuSans-6c" d="M 603 4863 
L 1178 4863 
L 1178 0 
L 603 0 
L 603 4863 
z
" transform="scale(0.015625)"/>
      <path id="DejaVuSans-6e" d="M 3513 2113 
L 3513 0 
L 2938 0 
L 2938 2094 
Q 2938 2591 2744 2837 
Q 2550 3084 2163 3084 
Q 1697 3084 1428 2787 
Q 1159 2491 1159 1978 
L 1159 0 
L 581 0 
L 581 3500 
L 1159 3500 
L 1159 2956 
Q 1366 3272 1645 3428 
Q 1925 3584 2291 3584 
Q 2894 3584 3203 3211 
Q 3513 2838 3513 2113 
z
" transform="scale(0.015625)"/>
      <path id="DejaVuSans-3d" d="M 678 2906 
L 4684 2906 
L 4684 2381 
L 678 2381 
L 678 2906 
z
M 678 1631 
L 4684 1631 
L 4684 1100 
L 678 1100 
L 678 1631 
z
" transform="scale(0.015625)"/>
      <path id="DejaVuSans-30" d="M 2034 4250 
Q 1547 4250 1301 3770 
Q 1056 3291 1056 2328 
Q 1056 1369 1301 889 
Q 1547 409 2034 409 
Q 2525 409 2770 889 
Q 3016 1369 3016 2328 
Q 3016 3291 2770 3770 
Q 2525 4250 2034 4250 
z
M 2034 4750 
Q 2819 4750 3233 4129 
Q 3647 3509 3647 2328 
Q 3647 1150 3233 529 
Q 2819 -91 2034 -91 
Q 1250 -91 836 529 
Q 422 1150 422 2328 
Q 422 3509 836 4129 
Q 1250 4750 2034 4750 
z
" transform="scale(0.015625)"/>
     </defs>
     <use xlink:href="#DejaVuSans-69"/>
     <use xlink:href="#DejaVuSans-6d" transform="translate(27.783203 0)"/>
     <use xlink:href="#DejaVuSans-61" transform="translate(125.195312 0)"/>
     <use xlink:href="#DejaVuSans-67" transform="translate(186.474609 0)"/>
     <use xlink:href="#DejaVuSans-65" transform="translate(249.951172 0)"/>
     <use xlink:href="#DejaVuSans-20" transform="translate(311.474609 0)"/>
     <use xlink:href="#DejaVuSans-70" transform="translate(343.261719 0)"/>
     <use xlink:href="#DejaVuSans-6c" transform="translate(406.738281 0)"/>
     <use xlink:href="#DejaVuSans-61" transform="translate(434.521484 0)"/>
     <use xlink:href="#DejaVuSans-6e" transform="translate(495.800781 0)"/>
     <use xlink:href="#DejaVuSans-65" transform="translate(559.179688 0)"/>
     <use xlink:href="#DejaVuSans-20" transform="translate(620.703125 0)"/>
     <use xlink:href="#DejaVuSans-7a" transform="translate(652.490234 0)"/>
     <use xlink:href="#DejaVuSans-20" transform="translate(704.980469 0)"/>
     <use xlink:href="#DejaVuSans-3d" transform="translate(736.767578 0)"/>
     <use xlink:href="#DejaVuSans-20" transform="translate(820.556641 0)"/>
     <use xlink:href="#DejaVuSans-30" transform="translate(852.34375 0)"/>
    </g>
   </g>
   <g id="text_4">
    <!-- O -->
    <g transform="translate(41.0304 300.902281) scale(0.11 -0.11)">
     <defs>
      <path id="DejaVuSans-4f" d="M 2522 4238 
Q 1834 4238 1429 3725 
Q 1025 3213 1025 2328 
Q 1025 1447 1429 934 
Q 1834 422 2522 422 
Q 3209 422 3611 934 
Q 4013 1447 4013 2328 
Q 4013 3213 3611 3725 
Q 3209 4238 2522 4238 
z
M 2522 4750 
Q 3503 4750 4090 4092 
Q 4678 3434 4678 2328 
Q 4678 1225 4090 567 
Q 3503 -91 2522 -91 
Q 1538 -91 948 565 
Q 359 1222 359 2328 
Q 359 3434 948 4092 
Q 1538 4750 2522 4750 
z
" transform="scale(0.015625)"/>
     </defs>
     <use xlink:href="#DejaVuSans-4f"/>
    </g>
   </g>
   <g id="text_5">
    <!-- Q -->
    <g transform="translate(39.0304 172.326281) scale(0.11 -0.11)">
     <defs>
      <path id="DejaVuSans-51" d="M 2522 4238 
Q 1834 4238 1429 3725 
Q 1025 3213 1025 2328 
Q 1025 1447 1429 934 
Q 1834 422 2522 422 
Q 3209 422 3611 934 
Q 4013 1447 4013 2328 
Q 4013 3213 3611 3725 
Q 3209 4238 2522 4238 
z
M 3406 84 
L 4238 -825 
L 3475 -825 
L 2784 -78 
Q 2681 -84 2626 -87 
Q 2572 -91 2522 -91 
Q 1538 -91 948 567 
Q 359 1225 359 2328 
Q 359 3434 948 4092 
Q 1538 4750 2522 4750 
Q 3503 4750 4090 4092 
Q 4678 3434 4678 2328 
Q 4678 1516 4351 937 
Q 4025 359 3406 84 
z
" transform="scale(0.015625)"/>
     </defs>
     <use xlink:href="#DejaVuSans-51"/>
    </g>
   </g>
   <g id="text_6">
    <!-- C -->
    <g transform="translate(332.0128 300.902281) scale(0.11 -0.11)">
     <defs>
      <path id="DejaVuSans-43" d="M 4122 4306 
L 4122 3641 
Q 3803 3938 3442 4084 
Q 3081 4231 2675 4231 
Q 1875 4231 1450 3742 
Q 1025 3253 1025 2328 
Q 1025 1406 1450 917 
Q 1875 428 2675 428 
Q 3081 428 3442 575 
Q 3803 722 4122 1019 
L 4122 359 
Q 3791 134 3420 21 
Q 3050 -91 2638 -91 
Q 1578 -91 968 557 
Q 359 1206 359 2328 
Q 359 3453 968 4101 
Q 1578 4750 2638 4750 
Q 3056 4750 3426 4639 
Q 3797 4528 4122 4306 
z
" transform="scale(0.015625)"/>
     </defs>
     <use xlink:href="#DejaVuSans-43"/>
    </g>
   </g>
   <g id="patch_2">
    <path d="M 227.22379 57.235652 
Q 276.59534 96.792096 325.966889 136.348541 
" style="fill: none; stroke: #7d3c98; stroke-width: 0.7; stroke-linecap: round"/>
   </g>
   <g id="text_7">
    <!-- P (x, y): a point of the wavefront -->
    <g style="fill: #7d3c98" transform="translate(144.6912 52.111881) scale(0.09 -0.09)">
     <defs>
      <path id="DejaVuSans-50" d="M 1259 4147 
L 1259 2394 
L 2053 2394 
Q 2494 2394 2734 2622 
Q 2975 2850 2975 3272 
Q 2975 3691 2734 3919 
Q 2494 4147 2053 4147 
L 1259 4147 
z
M 628 4666 
L 2053 4666 
Q 2838 4666 3239 4311 
Q 3641 3956 3641 3272 
Q 3641 2581 3239 2228 
Q 2838 1875 2053 1875 
L 1259 1875 
L 1259 0 
L 628 0 
L 628 4666 
z
" transform="scale(0.015625)"/>
      <path id="DejaVuSans-28" d="M 1984 4856 
Q 1566 4138 1362 3434 
Q 1159 2731 1159 2009 
Q 1159 1288 1364 580 
Q 1569 -128 1984 -844 
L 1484 -844 
Q 1016 -109 783 600 
Q 550 1309 550 2009 
Q 550 2706 781 3412 
Q 1013 4119 1484 4856 
L 1984 4856 
z
" transform="scale(0.015625)"/>
      <path id="DejaVuSans-78" d="M 3513 3500 
L 2247 1797 
L 3578 0 
L 2900 0 
L 1881 1375 
L 863 0 
L 184 0 
L 1544 1831 
L 300 3500 
L 978 3500 
L 1906 2253 
L 2834 3500 
L 3513 3500 
z
" transform="scale(0.015625)"/>
      <path id="DejaVuSans-2c" d="M 750 794 
L 1409 794 
L 1409 256 
L 897 -744 
L 494 -744 
L 750 256 
L 750 794 
z
" transform="scale(0.015625)"/>
      <path id="DejaVuSans-29" d="M 513 4856 
L 1013 4856 
Q 1481 4119 1714 3412 
Q 1947 2706 1947 2009 
Q 1947 1309 1714 600 
Q 1481 -109 1013 -844 
L 513 -844 
Q 928 -128 1133 580 
Q 1338 1288 1338 2009 
Q 1338 2731 1133 3434 
Q 928 4138 513 4856 
z
" transform="scale(0.015625)"/>
      <path id="DejaVuSans-3a" d="M 750 794 
L 1409 794 
L 1409 0 
L 750 0 
L 750 794 
z
M 750 3309 
L 1409 3309 
L 1409 2516 
L 750 2516 
L 750 3309 
z
" transform="scale(0.015625)"/>
      <path id="DejaVuSans-6f" d="M 1959 3097 
Q 1497 3097 1228 2736 
Q 959 2375 959 1747 
Q 959 1119 1226 758 
Q 1494 397 1959 397 
Q 2419 397 2687 759 
Q 2956 1122 2956 1747 
Q 2956 2369 2687 2733 
Q 2419 3097 1959 3097 
z
M 1959 3584 
Q 2709 3584 3137 3096 
Q 3566 2609 3566 1747 
Q 3566 888 3137 398 
Q 2709 -91 1959 -91 
Q 1206 -91 779 398 
Q 353 888 353 1747 
Q 353 2609 779 3096 
Q 1206 3584 1959 3584 
z
" transform="scale(0.015625)"/>
      <path id="DejaVuSans-74" d="M 1172 4494 
L 1172 3500 
L 2356 3500 
L 2356 3053 
L 1172 3053 
L 1172 1153 
Q 1172 725 1289 603 
Q 1406 481 1766 481 
L 2356 481 
L 2356 0 
L 1766 0 
Q 1100 0 847 248 
Q 594 497 594 1153 
L 594 3053 
L 172 3053 
L 172 3500 
L 594 3500 
L 594 4494 
L 1172 4494 
z
" transform="scale(0.015625)"/>
      <path id="DejaVuSans-66" d="M 2375 4863 
L 2375 4384 
L 1825 4384 
Q 1516 4384 1395 4259 
Q 1275 4134 1275 3809 
L 1275 3500 
L 2222 3500 
L 2222 3053 
L 1275 3053 
L 1275 0 
L 697 0 
L 697 3053 
L 147 3053 
L 147 3500 
L 697 3500 
L 697 3744 
Q 697 4328 969 4595 
Q 1241 4863 1831 4863 
L 2375 4863 
z
" transform="scale(0.015625)"/>
      <path id="DejaVuSans-68" d="M 3513 2113 
L 3513 0 
L 2938 0 
L 2938 2094 
Q 2938 2591 2744 2837 
Q 2550 3084 2163 3084 
Q 1697 3084 1428 2787 
Q 1159 2491 1159 1978 
L 1159 0 
L 581 0 
L 581 4863 
L 1159 4863 
L 1159 2956 
Q 1366 3272 1645 3428 
Q 1925 3584 2291 3584 
Q 2894 3584 3203 3211 
Q 3513 2838 3513 2113 
z
" transform="scale(0.015625)"/>
      <path id="DejaVuSans-77" d="M 269 3500 
L 844 3500 
L 1563 769 
L 2278 3500 
L 2956 3500 
L 3675 769 
L 4391 3500 
L 4966 3500 
L 4050 0 
L 3372 0 
L 2619 2869 
L 1863 0 
L 1184 0 
L 269 3500 
z
" transform="scale(0.015625)"/>
      <path id="DejaVuSans-76" d="M 191 3500 
L 800 3500 
L 1894 563 
L 2988 3500 
L 3597 3500 
L 2284 0 
L 1503 0 
L 191 3500 
z
" transform="scale(0.015625)"/>
      <path id="DejaVuSans-72" d="M 2631 2963 
Q 2534 3019 2420 3045 
Q 2306 3072 2169 3072 
Q 1681 3072 1420 2755 
Q 1159 2438 1159 1844 
L 1159 0 
L 581 0 
L 581 3500 
L 1159 3500 
L 1159 2956 
Q 1341 3275 1631 3429 
Q 1922 3584 2338 3584 
Q 2397 3584 2469 3576 
Q 2541 3569 2628 3553 
L 2631 2963 
z
" transform="scale(0.015625)"/>
     </defs>
     <use xlink:href="#DejaVuSans-50"/>
     <use xlink:href="#DejaVuSans-20" transform="translate(60.302734 0)"/>
     <use xlink:href="#DejaVuSans-28" transform="translate(92.089844 0)"/>
     <use xlink:href="#DejaVuSans-78" transform="translate(131.103516 0)"/>
     <use xlink:href="#DejaVuSans-2c" transform="translate(190.283203 0)"/>
     <use xlink:href="#DejaVuSans-20" transform="translate(222.070312 0)"/>
     <use xlink:href="#DejaVuSans-79" transform="translate(253.857422 0)"/>
     <use xlink:href="#DejaVuSans-29" transform="translate(313.037109 0)"/>
     <use xlink:href="#DejaVuSans-3a" transform="translate(352.050781 0)"/>
     <use xlink:href="#DejaVuSans-20" transform="translate(385.742188 0)"/>
     <use xlink:href="#DejaVuSans-61" transform="translate(417.529297 0)"/>
     <use xlink:href="#DejaVuSans-20" transform="translate(478.808594 0)"/>
     <use xlink:href="#DejaVuSans-70" transform="translate(510.595703 0)"/>
     <use xlink:href="#DejaVuSans-6f" transform="translate(574.072266 0)"/>
     <use xlink:href="#DejaVuSans-69" transform="translate(635.253906 0)"/>
     <use xlink:href="#DejaVuSans-6e" transform="translate(663.037109 0)"/>
     <use xlink:href="#DejaVuSans-74" transform="translate(726.416016 0)"/>
     <use xlink:href="#DejaVuSans-20" transform="translate(765.625 0)"/>
     <use xlink:href="#DejaVuSans-6f" transform="translate(797.412109 0)"/>
     <use xlink:href="#DejaVuSans-66" transform="translate(858.59375 0)"/>
     <use xlink:href="#DejaVuSans-20" transform="translate(893.798828 0)"/>
     <use xlink:href="#DejaVuSans-74" transform="translate(925.585938 0)"/>
     <use xlink:href="#DejaVuSans-68" transform="translate(964.794922 0)"/>
     <use xlink:href="#DejaVuSans-65" transform="translate(1028.173828 0)"/>
     <use xlink:href="#DejaVuSans-20" transform="translate(1089.697266 0)"/>
     <use xlink:href="#DejaVuSans-77" transform="translate(1121.484375 0)"/>
     <use xlink:href="#DejaVuSans-61" transform="translate(1203.271484 0)"/>
     <use xlink:href="#DejaVuSans-76" transform="translate(1264.550781 0)"/>
     <use xlink:href="#DejaVuSans-65" transform="translate(1323.730469 0)"/>
     <use xlink:href="#DejaVuSans-66" transform="translate(1385.253906 0)"/>
     <use xlink:href="#DejaVuSans-72" transform="translate(1420.458984 0)"/>
     <use xlink:href="#DejaVuSans-6f" transform="translate(1459.322266 0)"/>
     <use xlink:href="#DejaVuSans-6e" transform="translate(1520.503906 0)"/>
     <use xlink:href="#DejaVuSans-74" transform="translate(1583.882812 0)"/>
    </g>
   </g>
   <g id="patch_3">
    <path d="M 404.586125 164.551827 
Q 377.32596 150.151955 350.065795 135.752083 
" style="fill: none; stroke: #1f5fa8; stroke-width: 0.7; stroke-linecap: round"/>
   </g>
   <g id="text_8">
    <!-- S, on the sphere -->
    <g style="fill: #1f5fa8" transform="translate(381.4816 174.326281) scale(0.09 -0.09)">
     <defs>
      <path id="DejaVuSans-53" d="M 3425 4513 
L 3425 3897 
Q 3066 4069 2747 4153 
Q 2428 4238 2131 4238 
Q 1616 4238 1336 4038 
Q 1056 3838 1056 3469 
Q 1056 3159 1242 3001 
Q 1428 2844 1947 2747 
L 2328 2669 
Q 3034 2534 3370 2195 
Q 3706 1856 3706 1288 
Q 3706 609 3251 259 
Q 2797 -91 1919 -91 
Q 1588 -91 1214 -16 
Q 841 59 441 206 
L 441 856 
Q 825 641 1194 531 
Q 1563 422 1919 422 
Q 2459 422 2753 634 
Q 3047 847 3047 1241 
Q 3047 1584 2836 1778 
Q 2625 1972 2144 2069 
L 1759 2144 
Q 1053 2284 737 2584 
Q 422 2884 422 3419 
Q 422 4038 858 4394 
Q 1294 4750 2059 4750 
Q 2388 4750 2728 4690 
Q 3069 4631 3425 4513 
z
" transform="scale(0.015625)"/>
      <path id="DejaVuSans-73" d="M 2834 3397 
L 2834 2853 
Q 2591 2978 2328 3040 
Q 2066 3103 1784 3103 
Q 1356 3103 1142 2972 
Q 928 2841 928 2578 
Q 928 2378 1081 2264 
Q 1234 2150 1697 2047 
L 1894 2003 
Q 2506 1872 2764 1633 
Q 3022 1394 3022 966 
Q 3022 478 2636 193 
Q 2250 -91 1575 -91 
Q 1294 -91 989 -36 
Q 684 19 347 128 
L 347 722 
Q 666 556 975 473 
Q 1284 391 1588 391 
Q 1994 391 2212 530 
Q 2431 669 2431 922 
Q 2431 1156 2273 1281 
Q 2116 1406 1581 1522 
L 1381 1569 
Q 847 1681 609 1914 
Q 372 2147 372 2553 
Q 372 3047 722 3315 
Q 1072 3584 1716 3584 
Q 2034 3584 2315 3537 
Q 2597 3491 2834 3397 
z
" transform="scale(0.015625)"/>
     </defs>
     <use xlink:href="#DejaVuSans-53"/>
     <use xlink:href="#DejaVuSans-2c" transform="translate(63.476562 0)"/>
     <use xlink:href="#DejaVuSans-20" transform="translate(95.263672 0)"/>
     <use xlink:href="#DejaVuSans-6f" transform="translate(127.050781 0)"/>
     <use xlink:href="#DejaVuSans-6e" transform="translate(188.232422 0)"/>
     <use xlink:href="#DejaVuSans-20" transform="translate(251.611328 0)"/>
     <use xlink:href="#DejaVuSans-74" transform="translate(283.398438 0)"/>
     <use xlink:href="#DejaVuSans-68" transform="translate(322.607422 0)"/>
     <use xlink:href="#DejaVuSans-65" transform="translate(385.986328 0)"/>
     <use xlink:href="#DejaVuSans-20" transform="translate(447.509766 0)"/>
     <use xlink:href="#DejaVuSans-73" transform="translate(479.296875 0)"/>
     <use xlink:href="#DejaVuSans-70" transform="translate(531.396484 0)"/>
     <use xlink:href="#DejaVuSans-68" transform="translate(594.873047 0)"/>
     <use xlink:href="#DejaVuSans-65" transform="translate(658.251953 0)"/>
     <use xlink:href="#DejaVuSans-72" transform="translate(719.775391 0)"/>
     <use xlink:href="#DejaVuSans-65" transform="translate(758.638672 0)"/>
    </g>
   </g>
   <g id="text_9">
    <!-- T -->
    <g style="fill: #d35400" transform="translate(39.0304 261.640497) scale(0.11 -0.11)">
     <defs>
      <path id="DejaVuSans-54" d="M -19 4666 
L 3928 4666 
L 3928 4134 
L 2272 4134 
L 2272 0 
L 1638 0 
L 1638 4134 
L -19 4134 
L -19 4666 
z
" transform="scale(0.015625)"/>
     </defs>
     <use xlink:href="#DejaVuSans-54"/>
    </g>
   </g>
   <g id="patch_4">
    <path d="M 147.713845 270.42376 
Q 148.383344 244.02286 149.052844 217.621961 
" style="fill: none; stroke: #d35400; stroke-width: 0.7; stroke-linecap: round"/>
   </g>
   <g id="text_10">
    <!-- ray PT, normal to the wavefront -->
    <g style="fill: #d35400" transform="translate(75.9456 281.263881) scale(0.09 -0.09)">
     <use xlink:href="#DejaVuSans-72"/>
     <use xlink:href="#DejaVuSans-61" transform="translate(41.113281 0)"/>
     <use xlink:href="#DejaVuSans-79" transform="translate(102.392578 0)"/>
     <use xlink:href="#DejaVuSans-20" transform="translate(161.572266 0)"/>
     <use xlink:href="#DejaVuSans-50" transform="translate(193.359375 0)"/>
     <use xlink:href="#DejaVuSans-54" transform="translate(253.662109 0)"/>
     <use xlink:href="#DejaVuSans-2c" transform="translate(314.746094 0)"/>
     <use xlink:href="#DejaVuSans-20" transform="translate(346.533203 0)"/>
     <use xlink:href="#DejaVuSans-6e" transform="translate(378.320312 0)"/>
     <use xlink:href="#DejaVuSans-6f" transform="translate(441.699219 0)"/>
     <use xlink:href="#DejaVuSans-72" transform="translate(502.880859 0)"/>
     <use xlink:href="#DejaVuSans-6d" transform="translate(542.244141 0)"/>
     <use xlink:href="#DejaVuSans-61" transform="translate(639.65625 0)"/>
     <use xlink:href="#DejaVuSans-6c" transform="translate(700.935547 0)"/>
     <use xlink:href="#DejaVuSans-20" transform="translate(728.71875 0)"/>
     <use xlink:href="#DejaVuSans-74" transform="translate(760.505859 0)"/>
     <use xlink:href="#DejaVuSans-6f" transform="translate(799.714844 0)"/>
     <use xlink:href="#DejaVuSans-20" transform="translate(860.896484 0)"/>
     <use xlink:href="#DejaVuSans-74" transform="translate(892.683594 0)"/>
     <use xlink:href="#DejaVuSans-68" transform="translate(931.892578 0)"/>
     <use xlink:href="#DejaVuSans-65" transform="translate(995.271484 0)"/>
     <use xlink:href="#DejaVuSans-20" transform="translate(1056.794922 0)"/>
     <use xlink:href="#DejaVuSans-77" transform="translate(1088.582031 0)"/>
     <use xlink:href="#DejaVuSans-61" transform="translate(1170.369141 0)"/>
     <use xlink:href="#DejaVuSans-76" transform="translate(1231.648438 0)"/>
     <use xlink:href="#DejaVuSans-65" transform="translate(1290.828125 0)"/>
     <use xlink:href="#DejaVuSans-66" transform="translate(1352.351562 0)"/>
     <use xlink:href="#DejaVuSans-72" transform="translate(1387.556641 0)"/>
     <use xlink:href="#DejaVuSans-6f" transform="translate(1426.419922 0)"/>
     <use xlink:href="#DejaVuSans-6e" transform="translate(1487.601562 0)"/>
     <use xlink:href="#DejaVuSans-74" transform="translate(1550.980469 0)"/>
    </g>
   </g>
   <g id="patch_5">
    <path d="M 425.794493 41.594958 
Q 382.458519 63.024235 339.122545 84.453513 
" style="fill: none; stroke: #1f5fa8; stroke-width: 0.7; stroke-linecap: round"/>
   </g>
   <g id="text_11">
    <!-- reference sphere: centre Q, radius R -->
    <g style="fill: #1f5fa8" transform="translate(358.5664 36.835081) scale(0.09 -0.09)">
     <defs>
      <path id="DejaVuSans-63" d="M 3122 3366 
L 3122 2828 
Q 2878 2963 2633 3030 
Q 2388 3097 2138 3097 
Q 1578 3097 1268 2742 
Q 959 2388 959 1747 
Q 959 1106 1268 751 
Q 1578 397 2138 397 
Q 2388 397 2633 464 
Q 2878 531 3122 666 
L 3122 134 
Q 2881 22 2623 -34 
Q 2366 -91 2075 -91 
Q 1284 -91 818 406 
Q 353 903 353 1747 
Q 353 2603 823 3093 
Q 1294 3584 2113 3584 
Q 2378 3584 2631 3529 
Q 2884 3475 3122 3366 
z
" transform="scale(0.015625)"/>
      <path id="DejaVuSans-64" d="M 2906 2969 
L 2906 4863 
L 3481 4863 
L 3481 0 
L 2906 0 
L 2906 525 
Q 2725 213 2448 61 
Q 2172 -91 1784 -91 
Q 1150 -91 751 415 
Q 353 922 353 1747 
Q 353 2572 751 3078 
Q 1150 3584 1784 3584 
Q 2172 3584 2448 3432 
Q 2725 3281 2906 2969 
z
M 947 1747 
Q 947 1113 1208 752 
Q 1469 391 1925 391 
Q 2381 391 2643 752 
Q 2906 1113 2906 1747 
Q 2906 2381 2643 2742 
Q 2381 3103 1925 3103 
Q 1469 3103 1208 2742 
Q 947 2381 947 1747 
z
" transform="scale(0.015625)"/>
      <path id="DejaVuSans-75" d="M 544 1381 
L 544 3500 
L 1119 3500 
L 1119 1403 
Q 1119 906 1312 657 
Q 1506 409 1894 409 
Q 2359 409 2629 706 
Q 2900 1003 2900 1516 
L 2900 3500 
L 3475 3500 
L 3475 0 
L 2900 0 
L 2900 538 
Q 2691 219 2414 64 
Q 2138 -91 1772 -91 
Q 1169 -91 856 284 
Q 544 659 544 1381 
z
M 1991 3584 
L 1991 3584 
z
" transform="scale(0.015625)"/>
      <path id="DejaVuSans-52" d="M 2841 2188 
Q 3044 2119 3236 1894 
Q 3428 1669 3622 1275 
L 4263 0 
L 3584 0 
L 2988 1197 
Q 2756 1666 2539 1819 
Q 2322 1972 1947 1972 
L 1259 1972 
L 1259 0 
L 628 0 
L 628 4666 
L 2053 4666 
Q 2853 4666 3247 4331 
Q 3641 3997 3641 3322 
Q 3641 2881 3436 2590 
Q 3231 2300 2841 2188 
z
M 1259 4147 
L 1259 2491 
L 2053 2491 
Q 2509 2491 2742 2702 
Q 2975 2913 2975 3322 
Q 2975 3731 2742 3939 
Q 2509 4147 2053 4147 
L 1259 4147 
z
" transform="scale(0.015625)"/>
     </defs>
     <use xlink:href="#DejaVuSans-72"/>
     <use xlink:href="#DejaVuSans-65" transform="translate(38.863281 0)"/>
     <use xlink:href="#DejaVuSans-66" transform="translate(100.386719 0)"/>
     <use xlink:href="#DejaVuSans-65" transform="translate(135.591797 0)"/>
     <use xlink:href="#DejaVuSans-72" transform="translate(197.115234 0)"/>
     <use xlink:href="#DejaVuSans-65" transform="translate(235.978516 0)"/>
     <use xlink:href="#DejaVuSans-6e" transform="translate(297.501953 0)"/>
     <use xlink:href="#DejaVuSans-63" transform="translate(360.880859 0)"/>
     <use xlink:href="#DejaVuSans-65" transform="translate(415.861328 0)"/>
     <use xlink:href="#DejaVuSans-20" transform="translate(477.384766 0)"/>
     <use xlink:href="#DejaVuSans-73" transform="translate(509.171875 0)"/>
     <use xlink:href="#DejaVuSans-70" transform="translate(561.271484 0)"/>
     <use xlink:href="#DejaVuSans-68" transform="translate(624.748047 0)"/>
     <use xlink:href="#DejaVuSans-65" transform="translate(688.126953 0)"/>
     <use xlink:href="#DejaVuSans-72" transform="translate(749.650391 0)"/>
     <use xlink:href="#DejaVuSans-65" transform="translate(788.513672 0)"/>
     <use xlink:href="#DejaVuSans-3a" transform="translate(850.037109 0)"/>
     <use xlink:href="#DejaVuSans-20" transform="translate(883.728516 0)"/>
     <use xlink:href="#DejaVuSans-63" transform="translate(915.515625 0)"/>
     <use xlink:href="#DejaVuSans-65" transform="translate(970.496094 0)"/>
     <use xlink:href="#DejaVuSans-6e" transform="translate(1032.019531 0)"/>
     <use xlink:href="#DejaVuSans-74" transform="translate(1095.398438 0)"/>
     <use xlink:href="#DejaVuSans-72" transform="translate(1134.607422 0)"/>
     <use xlink:href="#DejaVuSans-65" transform="translate(1173.470703 0)"/>
     <use xlink:href="#DejaVuSans-20" transform="translate(1234.994141 0)"/>
     <use xlink:href="#DejaVuSans-51" transform="translate(1266.78125 0)"/>
     <use xlink:href="#DejaVuSans-2c" transform="translate(1345.492188 0)"/>
     <use xlink:href="#DejaVuSans-20" transform="translate(1377.279297 0)"/>
     <use xlink:href="#DejaVuSans-72" transform="translate(1409.066406 0)"/>
     <use xlink:href="#DejaVuSans-61" transform="translate(1450.179688 0)"/>
     <use xlink:href="#DejaVuSans-64" transform="translate(1511.458984 0)"/>
     <use xlink:href="#DejaVuSans-69" transform="translate(1574.935547 0)"/>
     <use xlink:href="#DejaVuSans-75" transform="translate(1602.71875 0)"/>
     <use xlink:href="#DejaVuSans-73" transform="translate(1666.097656 0)"/>
     <use xlink:href="#DejaVuSans-20" transform="translate(1718.197266 0)"/>
     <use xlink:href="#DejaVuSans-52" transform="translate(1749.984375 0)"/>
    </g>
   </g>
   <g id="patch_6">
    <path d="M 346.933108 337.019415 
Q 322.920872 338.44727 298.908635 339.875124 
" style="fill: none; stroke: #7d3c98; stroke-width: 0.7; stroke-linecap: round"/>
   </g>
   <g id="text_12">
    <!-- wavefront, propagating to the left -->
    <g style="fill: #7d3c98" transform="translate(350.928 334.732681) scale(0.09 -0.09)">
     <use xlink:href="#DejaVuSans-77"/>
     <use xlink:href="#DejaVuSans-61" transform="translate(81.787109 0)"/>
     <use xlink:href="#DejaVuSans-76" transform="translate(143.066406 0)"/>
     <use xlink:href="#DejaVuSans-65" transform="translate(202.246094 0)"/>
     <use xlink:href="#DejaVuSans-66" transform="translate(263.769531 0)"/>
     <use xlink:href="#DejaVuSans-72" transform="translate(298.974609 0)"/>
     <use xlink:href="#DejaVuSans-6f" transform="translate(337.837891 0)"/>
     <use xlink:href="#DejaVuSans-6e" transform="translate(399.019531 0)"/>
     <use xlink:href="#DejaVuSans-74" transform="translate(462.398438 0)"/>
     <use xlink:href="#DejaVuSans-2c" transform="translate(501.607422 0)"/>
     <use xlink:href="#DejaVuSans-20" transform="translate(533.394531 0)"/>
     <use xlink:href="#DejaVuSans-70" transform="translate(565.181641 0)"/>
     <use xlink:href="#DejaVuSans-72" transform="translate(628.658203 0)"/>
     <use xlink:href="#DejaVuSans-6f" transform="translate(667.521484 0)"/>
     <use xlink:href="#DejaVuSans-70" transform="translate(728.703125 0)"/>
     <use xlink:href="#DejaVuSans-61" transform="translate(792.179688 0)"/>
     <use xlink:href="#DejaVuSans-67" transform="translate(853.458984 0)"/>
     <use xlink:href="#DejaVuSans-61" transform="translate(916.935547 0)"/>
     <use xlink:href="#DejaVuSans-74" transform="translate(978.214844 0)"/>
     <use xlink:href="#DejaVuSans-69" transform="translate(1017.423828 0)"/>
     <use xlink:href="#DejaVuSans-6e" transform="translate(1045.207031 0)"/>
     <use xlink:href="#DejaVuSans-67" transform="translate(1108.585938 0)"/>
     <use xlink:href="#DejaVuSans-20" transform="translate(1172.0625 0)"/>
     <use xlink:href="#DejaVuSans-74" transform="translate(1203.849609 0)"/>
     <use xlink:href="#DejaVuSans-6f" transform="translate(1243.058594 0)"/>
     <use xlink:href="#DejaVuSans-20" transform="translate(1304.240234 0)"/>
     <use xlink:href="#DejaVuSans-74" transform="translate(1336.027344 0)"/>
     <use xlink:href="#DejaVuSans-68" transform="translate(1375.236328 0)"/>
     <use xlink:href="#DejaVuSans-65" transform="translate(1438.615234 0)"/>
     <use xlink:href="#DejaVuSans-20" transform="translate(1500.138672 0)"/>
     <use xlink:href="#DejaVuSans-6c" transform="translate(1531.925781 0)"/>
     <use xlink:href="#DejaVuSans-65" transform="translate(1559.708984 0)"/>
     <use xlink:href="#DejaVuSans-66" transform="translate(1621.232422 0)"/>
     <use xlink:href="#DejaVuSans-74" transform="translate(1654.6875 0)"/>
    </g>
   </g>
   <g id="patch_7">
    <path d="M 53.0304 177.217257 
Q 53.0304 231.611063 53.0304 286.004869 
" style="fill: none; stroke: #000000; stroke-width: 0.8; stroke-linecap: round"/>
    <path d="M 51.0304 181.217257 
L 53.0304 177.217257 
L 55.0304 181.217257 
" style="fill: none; stroke: #000000; stroke-width: 0.8; stroke-linecap: round"/>
    <path d="M 55.0304 282.004869 
L 53.0304 286.004869 
L 51.0304 282.004869 
" style="fill: none; stroke: #000000; stroke-width: 0.8; stroke-linecap: round"/>
   </g>
   <g id="text_13">
    <!-- H -->
    <g transform="translate(30.1152 231.614281) scale(0.1 -0.1)">
     <defs>
      <path id="DejaVuSans-48" d="M 628 4666 
L 1259 4666 
L 1259 2753 
L 3553 2753 
L 3553 4666 
L 4184 4666 
L 4184 0 
L 3553 0 
L 3553 2222 
L 1259 2222 
L 1259 0 
L 628 0 
L 628 4666 
z
" transform="scale(0.015625)"/>
     </defs>
     <use xlink:href="#DejaVuSans-48"/>
    </g>
   </g>
   <g id="patch_8">
    <path d="M 53.0304 254.745084 
Q 53.0304 215.982934 53.0304 177.220784 
" style="fill: none; stroke: #d35400; stroke-width: 0.8; stroke-linecap: round"/>
    <path d="M 55.0304 250.745084 
L 53.0304 254.745084 
L 51.0304 250.745084 
" style="fill: none; stroke: #d35400; stroke-width: 0.8; stroke-linecap: round"/>
    <path d="M 51.0304 181.220784 
L 53.0304 177.220784 
L 55.0304 181.220784 
" style="fill: none; stroke: #d35400; stroke-width: 0.8; stroke-linecap: round"/>
   </g>
   <g id="text_14">
    <!-- Y -->
    <g style="fill: #d35400" transform="translate(26.296 215.983389) scale(0.1 -0.1)">
     <defs>
      <path id="DejaVuSans-59" d="M -13 4666 
L 666 4666 
L 1959 2747 
L 3244 4666 
L 3922 4666 
L 2272 2222 
L 2272 0 
L 1638 0 
L 1638 2222 
L -13 4666 
z
" transform="scale(0.015625)"/>
     </defs>
     <use xlink:href="#DejaVuSans-59"/>
    </g>
   </g>
   <g id="text_15">
    <!-- R = QC -->
    <g transform="translate(194.3408 223.975881) scale(0.09 -0.09)">
     <use xlink:href="#DejaVuSans-52"/>
     <use xlink:href="#DejaVuSans-20" transform="translate(69.482422 0)"/>
     <use xlink:href="#DejaVuSans-3d" transform="translate(101.269531 0)"/>
     <use xlink:href="#DejaVuSans-20" transform="translate(185.058594 0)"/>
     <use xlink:href="#DejaVuSans-51" transform="translate(216.845703 0)"/>
     <use xlink:href="#DejaVuSans-43" transform="translate(295.556641 0)"/>
    </g>
   </g>
   <g id="text_16">
    <!-- r = QP -->
    <g transform="translate(175.000856 146.413554) scale(0.09 -0.09)">
     <use xlink:href="#DejaVuSans-72"/>
     <use xlink:href="#DejaVuSans-20" transform="translate(41.113281 0)"/>
     <use xlink:href="#DejaVuSans-3d" transform="translate(72.900391 0)"/>
     <use xlink:href="#DejaVuSans-20" transform="translate(156.689453 0)"/>
     <use xlink:href="#DejaVuSans-51" transform="translate(188.476562 0)"/>
     <use xlink:href="#DejaVuSans-50" transform="translate(267.1875 0)"/>
    </g>
   </g>
   <g id="patch_9">
    <path d="M 436.454529 102.666041 
Q 388.128403 119.114667 339.802277 135.563293 
" style="fill: none; stroke: #000000; stroke-width: 0.7; stroke-linecap: round"/>
   </g>
   <g id="text_17">
    <!-- W = PS = R − r -->
    <g transform="translate(419.6736 97.942281) scale(0.1 -0.1)">
     <defs>
      <path id="DejaVuSans-57" d="M 213 4666 
L 850 4666 
L 1831 722 
L 2809 4666 
L 3519 4666 
L 4500 722 
L 5478 4666 
L 6119 4666 
L 4947 0 
L 4153 0 
L 3169 4050 
L 2175 0 
L 1381 0 
L 213 4666 
z
" transform="scale(0.015625)"/>
      <path id="DejaVuSans-2212" d="M 678 2272 
L 4684 2272 
L 4684 1741 
L 678 1741 
L 678 2272 
z
" transform="scale(0.015625)"/>
     </defs>
     <use xlink:href="#DejaVuSans-57"/>
     <use xlink:href="#DejaVuSans-20" transform="translate(98.876953 0)"/>
     <use xlink:href="#DejaVuSans-3d" transform="translate(130.664062 0)"/>
     <use xlink:href="#DejaVuSans-20" transform="translate(214.453125 0)"/>
     <use xlink:href="#DejaVuSans-50" transform="translate(246.240234 0)"/>
     <use xlink:href="#DejaVuSans-53" transform="translate(306.542969 0)"/>
     <use xlink:href="#DejaVuSans-20" transform="translate(370.019531 0)"/>
     <use xlink:href="#DejaVuSans-3d" transform="translate(401.806641 0)"/>
     <use xlink:href="#DejaVuSans-20" transform="translate(485.595703 0)"/>
     <use xlink:href="#DejaVuSans-52" transform="translate(517.382812 0)"/>
     <use xlink:href="#DejaVuSans-20" transform="translate(586.865234 0)"/>
     <use xlink:href="#DejaVuSans-2212" transform="translate(618.652344 0)"/>
     <use xlink:href="#DejaVuSans-20" transform="translate(702.441406 0)"/>
     <use xlink:href="#DejaVuSans-72" transform="translate(734.228516 0)"/>
    </g>
   </g>
   <g id="text_18">
    <!-- Rayces (1964): the meridional section of his figure (schematic) -->
    <g transform="translate(89.599213 15.558281) scale(0.11 -0.11)">
     <defs>
      <path id="DejaVuSans-31" d="M 794 531 
L 1825 531 
L 1825 4091 
L 703 3866 
L 703 4441 
L 1819 4666 
L 2450 4666 
L 2450 531 
L 3481 531 
L 3481 0 
L 794 0 
L 794 531 
z
" transform="scale(0.015625)"/>
      <path id="DejaVuSans-39" d="M 703 97 
L 703 672 
Q 941 559 1184 500 
Q 1428 441 1663 441 
Q 2288 441 2617 861 
Q 2947 1281 2994 2138 
Q 2813 1869 2534 1725 
Q 2256 1581 1919 1581 
Q 1219 1581 811 2004 
Q 403 2428 403 3163 
Q 403 3881 828 4315 
Q 1253 4750 1959 4750 
Q 2769 4750 3195 4129 
Q 3622 3509 3622 2328 
Q 3622 1225 3098 567 
Q 2575 -91 1691 -91 
Q 1453 -91 1209 -44 
Q 966 3 703 97 
z
M 1959 2075 
Q 2384 2075 2632 2365 
Q 2881 2656 2881 3163 
Q 2881 3666 2632 3958 
Q 2384 4250 1959 4250 
Q 1534 4250 1286 3958 
Q 1038 3666 1038 3163 
Q 1038 2656 1286 2365 
Q 1534 2075 1959 2075 
z
" transform="scale(0.015625)"/>
      <path id="DejaVuSans-36" d="M 2113 2584 
Q 1688 2584 1439 2293 
Q 1191 2003 1191 1497 
Q 1191 994 1439 701 
Q 1688 409 2113 409 
Q 2538 409 2786 701 
Q 3034 994 3034 1497 
Q 3034 2003 2786 2293 
Q 2538 2584 2113 2584 
z
M 3366 4563 
L 3366 3988 
Q 3128 4100 2886 4159 
Q 2644 4219 2406 4219 
Q 1781 4219 1451 3797 
Q 1122 3375 1075 2522 
Q 1259 2794 1537 2939 
Q 1816 3084 2150 3084 
Q 2853 3084 3261 2657 
Q 3669 2231 3669 1497 
Q 3669 778 3244 343 
Q 2819 -91 2113 -91 
Q 1303 -91 875 529 
Q 447 1150 447 2328 
Q 447 3434 972 4092 
Q 1497 4750 2381 4750 
Q 2619 4750 2861 4703 
Q 3103 4656 3366 4563 
z
" transform="scale(0.015625)"/>
      <path id="DejaVuSans-34" d="M 2419 4116 
L 825 1625 
L 2419 1625 
L 2419 4116 
z
M 2253 4666 
L 3047 4666 
L 3047 1625 
L 3713 1625 
L 3713 1100 
L 3047 1100 
L 3047 0 
L 2419 0 
L 2419 1100 
L 313 1100 
L 313 1709 
L 2253 4666 
z
" transform="scale(0.015625)"/>
     </defs>
     <use xlink:href="#DejaVuSans-52"/>
     <use xlink:href="#DejaVuSans-61" transform="translate(67.232422 0)"/>
     <use xlink:href="#DejaVuSans-79" transform="translate(128.511719 0)"/>
     <use xlink:href="#DejaVuSans-63" transform="translate(187.691406 0)"/>
     <use xlink:href="#DejaVuSans-65" transform="translate(242.671875 0)"/>
     <use xlink:href="#DejaVuSans-73" transform="translate(304.195312 0)"/>
     <use xlink:href="#DejaVuSans-20" transform="translate(356.294922 0)"/>
     <use xlink:href="#DejaVuSans-28" transform="translate(388.082031 0)"/>
     <use xlink:href="#DejaVuSans-31" transform="translate(427.095703 0)"/>
     <use xlink:href="#DejaVuSans-39" transform="translate(490.71875 0)"/>
     <use xlink:href="#DejaVuSans-36" transform="translate(554.341797 0)"/>
     <use xlink:href="#DejaVuSans-34" transform="translate(617.964844 0)"/>
     <use xlink:href="#DejaVuSans-29" transform="translate(681.587891 0)"/>
     <use xlink:href="#DejaVuSans-3a" transform="translate(720.601562 0)"/>
     <use xlink:href="#DejaVuSans-20" transform="translate(754.292969 0)"/>
     <use xlink:href="#DejaVuSans-74" transform="translate(786.080078 0)"/>
     <use xlink:href="#DejaVuSans-68" transform="translate(825.289062 0)"/>
     <use xlink:href="#DejaVuSans-65" transform="translate(888.667969 0)"/>
     <use xlink:href="#DejaVuSans-20" transform="translate(950.191406 0)"/>
     <use xlink:href="#DejaVuSans-6d" transform="translate(981.978516 0)"/>
     <use xlink:href="#DejaVuSans-65" transform="translate(1079.390625 0)"/>
     <use xlink:href="#DejaVuSans-72" transform="translate(1140.914062 0)"/>
     <use xlink:href="#DejaVuSans-69" transform="translate(1182.027344 0)"/>
     <use xlink:href="#DejaVuSans-64" transform="translate(1209.810547 0)"/>
     <use xlink:href="#DejaVuSans-69" transform="translate(1273.287109 0)"/>
     <use xlink:href="#DejaVuSans-6f" transform="translate(1301.070312 0)"/>
     <use xlink:href="#DejaVuSans-6e" transform="translate(1362.251953 0)"/>
     <use xlink:href="#DejaVuSans-61" transform="translate(1425.630859 0)"/>
     <use xlink:href="#DejaVuSans-6c" transform="translate(1486.910156 0)"/>
     <use xlink:href="#DejaVuSans-20" transform="translate(1514.693359 0)"/>
     <use xlink:href="#DejaVuSans-73" transform="translate(1546.480469 0)"/>
     <use xlink:href="#DejaVuSans-65" transform="translate(1598.580078 0)"/>
     <use xlink:href="#DejaVuSans-63" transform="translate(1660.103516 0)"/>
     <use xlink:href="#DejaVuSans-74" transform="translate(1715.083984 0)"/>
     <use xlink:href="#DejaVuSans-69" transform="translate(1754.292969 0)"/>
     <use xlink:href="#DejaVuSans-6f" transform="translate(1782.076172 0)"/>
     <use xlink:href="#DejaVuSans-6e" transform="translate(1843.257812 0)"/>
     <use xlink:href="#DejaVuSans-20" transform="translate(1906.636719 0)"/>
     <use xlink:href="#DejaVuSans-6f" transform="translate(1938.423828 0)"/>
     <use xlink:href="#DejaVuSans-66" transform="translate(1999.605469 0)"/>
     <use xlink:href="#DejaVuSans-20" transform="translate(2034.810547 0)"/>
     <use xlink:href="#DejaVuSans-68" transform="translate(2066.597656 0)"/>
     <use xlink:href="#DejaVuSans-69" transform="translate(2129.976562 0)"/>
     <use xlink:href="#DejaVuSans-73" transform="translate(2157.759766 0)"/>
     <use xlink:href="#DejaVuSans-20" transform="translate(2209.859375 0)"/>
     <use xlink:href="#DejaVuSans-66" transform="translate(2241.646484 0)"/>
     <use xlink:href="#DejaVuSans-69" transform="translate(2276.851562 0)"/>
     <use xlink:href="#DejaVuSans-67" transform="translate(2304.634766 0)"/>
     <use xlink:href="#DejaVuSans-75" transform="translate(2368.111328 0)"/>
     <use xlink:href="#DejaVuSans-72" transform="translate(2431.490234 0)"/>
     <use xlink:href="#DejaVuSans-65" transform="translate(2470.353516 0)"/>
     <use xlink:href="#DejaVuSans-20" transform="translate(2531.876953 0)"/>
     <use xlink:href="#DejaVuSans-28" transform="translate(2563.664062 0)"/>
     <use xlink:href="#DejaVuSans-73" transform="translate(2602.677734 0)"/>
     <use xlink:href="#DejaVuSans-63" transform="translate(2654.777344 0)"/>
     <use xlink:href="#DejaVuSans-68" transform="translate(2709.757812 0)"/>
     <use xlink:href="#DejaVuSans-65" transform="translate(2773.136719 0)"/>
     <use xlink:href="#DejaVuSans-6d" transform="translate(2834.660156 0)"/>
     <use xlink:href="#DejaVuSans-61" transform="translate(2932.072266 0)"/>
     <use xlink:href="#DejaVuSans-74" transform="translate(2993.351562 0)"/>
     <use xlink:href="#DejaVuSans-69" transform="translate(3032.560547 0)"/>
     <use xlink:href="#DejaVuSans-63" transform="translate(3060.34375 0)"/>
     <use xlink:href="#DejaVuSans-29" transform="translate(3115.324219 0)"/>
    </g>
   </g>
   <g id="line2d_8">
    <defs>
     <path id="m3c344d9806" d="M 0 2.5 
C 0.663008 2.5 1.29895 2.236584 1.767767 1.767767 
C 2.236584 1.29895 2.5 0.663008 2.5 0 
C 2.5 -0.663008 2.236584 -1.29895 1.767767 -1.767767 
C 1.29895 -2.236584 0.663008 -2.5 0 -2.5 
C -0.663008 -2.5 -1.29895 -2.236584 -1.767767 -1.767767 
C -2.236584 -1.29895 -2.5 -0.663008 -2.5 0 
C -2.5 0.663008 -2.236584 1.29895 -1.767767 1.767767 
C -1.29895 2.236584 -0.663008 2.5 0 2.5 
z
" style="stroke: #000000"/>
    </defs>
    <g clip-path="url(#p68ce64bc97)">
     <use xlink:href="#m3c344d9806" x="53.0304" y="288.902281" style="stroke: #000000"/>
    </g>
   </g>
   <g id="line2d_9">
    <g clip-path="url(#p68ce64bc97)">
     <use xlink:href="#m3c344d9806" x="53.0304" y="174.326281" style="stroke: #000000"/>
    </g>
   </g>
   <g id="line2d_10">
    <g clip-path="url(#p68ce64bc97)">
     <use xlink:href="#m3c344d9806" x="328.0128" y="288.902281" style="stroke: #000000"/>
    </g>
   </g>
   <g id="line2d_11">
    <defs>
     <path id="m8757c7b167" d="M 0 2.5 
C 0.663008 2.5 1.29895 2.236584 1.767767 1.767767 
C 2.236584 1.29895 2.5 0.663008 2.5 0 
C 2.5 -0.663008 2.236584 -1.29895 1.767767 -1.767767 
C 1.29895 -2.236584 0.663008 -2.5 0 -2.5 
C -0.663008 -2.5 -1.29895 -2.236584 -1.767767 -1.767767 
C -2.236584 -1.29895 -2.5 -0.663008 -2.5 0 
C -2.5 0.663008 -2.236584 1.29895 -1.767767 1.767767 
C -1.29895 2.236584 -0.663008 2.5 0 2.5 
z
" style="stroke: #7d3c98"/>
    </defs>
    <g clip-path="url(#p68ce64bc97)">
     <use xlink:href="#m8757c7b167" x="327.524911" y="137.596827" style="fill: #7d3c98; stroke: #7d3c98"/>
    </g>
   </g>
   <g id="line2d_12">
    <defs>
     <path id="m72d240a488" d="M 0 2.5 
C 0.663008 2.5 1.29895 2.236584 1.767767 1.767767 
C 2.236584 1.29895 2.5 0.663008 2.5 0 
C 2.5 -0.663008 2.236584 -1.29895 1.767767 -1.767767 
C 1.29895 -2.236584 0.663008 -2.5 0 -2.5 
C -0.663008 -2.5 -1.29895 -2.236584 -1.767767 -1.767767 
C -2.236584 -1.29895 -2.5 -0.663008 -2.5 0 
C -2.5 0.663008 -2.236584 1.29895 -1.767767 1.767767 
C -1.29895 2.236584 -0.663008 2.5 0 2.5 
z
" style="stroke: #1f5fa8"/>
    </defs>
    <g clip-path="url(#p68ce64bc97)">
     <use xlink:href="#m72d240a488" x="348.296435" y="134.817439" style="fill: #1f5fa8; stroke: #1f5fa8"/>
    </g>
   </g>
   <g id="line2d_13">
    <defs>
     <path id="ma1154cc460" d="M 0 2.5 
C 0.663008 2.5 1.29895 2.236584 1.767767 1.767767 
C 2.236584 1.29895 2.5 0.663008 2.5 0 
C 2.5 -0.663008 2.236584 -1.29895 1.767767 -1.767767 
C 1.29895 -2.236584 0.663008 -2.5 0 -2.5 
C -0.663008 -2.5 -1.29895 -2.236584 -1.767767 -1.767767 
C -2.236584 -1.29895 -2.5 -0.663008 -2.5 0 
C -2.5 0.663008 -2.236584 1.29895 -1.767767 1.767767 
C -1.29895 2.236584 -0.663008 2.5 0 2.5 
z
" style="stroke: #d35400"/>
    </defs>
    <g clip-path="url(#p68ce64bc97)">
     <use xlink:href="#ma1154cc460" x="53.0304" y="257.640497" style="fill: #d35400; stroke: #d35400"/>
    </g>
   </g>
  </g>
 </g>
 <defs>
  <clipPath id="p68ce64bc97">
   <rect x="7.2" y="21.558281" width="511.7728" height="343.728"/>
  </clipPath>
 </defs>
</svg>
